# xmcd
#
# Track frame offsets:
#	150
#	21154
#	27090
#	50574
#	71419
#	103539
#	128677
#	162443
#	187986
#
# Disc length: 2725 seconds
#
# Revision: 0
# Processed by: cddbd v1.5.2PL0 Copyright (c) Steve Scherf et al.
# Submitted via: audiograbber 1.83.01
#
DISCID=6e0aa309
DTITLE=Jeff Beck and Eric Clapton - Exhaust Note CD 4 (2007.11.30)
DYEAR=2007
DGENRE=British Blues Rock
TTITLE0=Scatterbrain
TTITLE1=Goodbye Pork Pie Hat
TTITLE2=Brush With The Blues
TTITLE3=Space Boogie
TTITLE4=Blanket
TTITLE5=Big Block
TTITLE6=A Day In The Life
TTITLE7=Rollin' And Tumblin'
TTITLE8=Where Were You
EXTD=
EXTT0=
EXTT1=
EXTT2=
EXTT3=
EXTT4=
EXTT5=
EXTT6=
EXTT7=
EXTT8=
PLAYORDER=
